<svg width="30" height="30" viewBox="0 0 30 30" fill="none" xmlns="http://www.w3.org/2000/svg">
<g id="Call 1">
<path id="Vector" d="M22.7082 17.9746C21.8686 17.794 21.2044 18.1839 20.6162 18.5244C20.0139 18.8751 18.8686 19.8043 18.2121 19.5665C14.851 18.1826 11.6899 15.2408 10.3214 11.8661C10.0802 11.1956 11.005 10.0431 11.3532 9.43365C11.6911 8.84371 12.0729 8.17321 11.8988 7.3273C11.7414 6.56713 9.70621 3.97741 8.98654 3.26923C8.5119 2.80145 8.02566 2.54416 7.52654 2.50257C5.64994 2.42201 3.55409 4.92598 3.18651 5.52501C2.26562 6.80233 2.27079 8.50197 3.20199 10.5628C5.44616 16.0984 13.934 24.4523 19.4902 26.7808C20.5156 27.2603 21.4532 27.5006 22.2955 27.5006C23.1196 27.5006 23.8535 27.2706 24.4843 26.8146C24.9601 26.5404 27.5667 24.3405 27.4984 22.4135C27.4571 21.9223 27.2005 21.4311 26.7388 20.9555C26.0358 20.2291 23.4627 18.1333 22.7082 17.9746Z" fill="#64646A"/>
</g>
</svg>
