<svg width="30" height="30" viewBox="0 0 30 30" fill="none" xmlns="http://www.w3.org/2000/svg">
<g id="bxl-linkedin 1">
<path id="Vector" d="M6.22874 8.99624C7.73924 8.99624 8.96374 7.77174 8.96374 6.26124C8.96374 4.75075 7.73924 3.52625 6.22874 3.52625C4.71824 3.52625 3.49374 4.75075 3.49374 6.26124C3.49374 7.77174 4.71824 8.99624 6.22874 8.99624Z" fill="#64646A"/>
<path id="Vector_2" d="M11.5462 11.0687V26.2425H16.2575V18.7387C16.2575 16.7587 16.63 14.8412 19.085 14.8412C21.5062 14.8412 21.5362 17.105 21.5362 18.8637V26.2437H26.25V17.9225C26.25 13.835 25.37 10.6937 20.5925 10.6937C18.2987 10.6937 16.7612 11.9525 16.1325 13.1437H16.0687V11.0687H11.5462ZM3.86874 11.0687H8.58749V26.2425H3.86874V11.0687Z" fill="#64646A"/>
</g>
</svg>
