<svg width="30" height="30" viewBox="0 0 30 30" fill="none" xmlns="http://www.w3.org/2000/svg">
<g id="bxl-twitter 1">
<path id="Vector" d="M24.5412 9.99624C24.5575 10.215 24.5575 10.4325 24.5575 10.65C24.5575 17.3062 19.4912 24.9762 10.2325 24.9762C7.38 24.9762 4.73 24.15 2.5 22.715C2.905 22.7612 3.295 22.7775 3.71625 22.7775C6.07 22.7775 8.23625 21.9825 9.9675 20.6262C7.75375 20.58 5.89875 19.13 5.25875 17.135C5.57 17.1812 5.8825 17.2125 6.21 17.2125C6.66125 17.2125 7.115 17.15 7.53625 17.0412C5.2275 16.5737 3.49875 14.5475 3.49875 12.1V12.0375C4.17 12.4112 4.94875 12.645 5.77375 12.6762C4.4175 11.7737 3.52875 10.23 3.52875 8.48374C3.52875 7.54874 3.7775 6.69124 4.21375 5.94374C6.6925 8.99749 10.4187 10.9937 14.5963 11.2125C14.5188 10.8375 14.4712 10.4487 14.4712 10.0587C14.4712 7.28374 16.7162 5.02374 19.5062 5.02374C20.9562 5.02374 22.265 5.63124 23.185 6.61374C24.3225 6.39499 25.4125 5.97374 26.38 5.39749C26.0063 6.56624 25.21 7.54874 24.1663 8.17249C25.18 8.06249 26.1625 7.78249 27.065 7.39249C26.38 8.38999 25.5237 9.27874 24.5412 9.99624Z" fill="#64646A"/>
</g>
</svg>
